<svg width="749" height="107" viewBox="0 0 749 107" fill="none" xmlns="http://www.w3.org/2000/svg">
<path d="M33.2227 87.4805C26.7383 87.4805 21.0742 86.5039 16.2305 84.5508C11.3867 82.5977 7.55859 79.8047 4.74609 76.1719C1.97266 72.5391 0.410156 68.2031 0.0585938 63.1641L0 62.2852H14.4141L14.5312 62.9883C14.9609 65.4102 16.0156 67.5 17.6953 69.2578C19.375 71.0156 21.582 72.3828 24.3164 73.3594C27.0898 74.2969 30.2344 74.7656 33.75 74.7656C37.3047 74.7656 40.3711 74.2773 42.9492 73.3008C45.5664 72.3242 47.5781 70.9375 48.9844 69.1406C50.3906 67.3047 51.0938 65.1758 51.0938 62.7539V62.6953C51.0938 59.5312 49.9023 57.0312 47.5195 55.1953C45.1758 53.3594 41.2695 51.8555 35.8008 50.6836L26.7188 48.8086C18.4375 47.0898 12.2266 44.2773 8.08594 40.3711C3.94531 36.4258 1.875 31.3086 1.875 25.0195V24.9609C1.91406 19.9609 3.26172 15.6055 5.91797 11.8945C8.61328 8.14453 12.3242 5.23437 17.0508 3.16406C21.7773 1.05469 27.168 0 33.2227 0C39.3555 0 44.7266 1.01562 49.3359 3.04688C53.9453 5.07813 57.5586 7.91016 60.1758 11.543C62.832 15.1758 64.2969 19.3945 64.5703 24.1992L64.6289 25.1953H50.2148L50.0977 24.4336C49.7461 21.9727 48.8281 19.8828 47.3438 18.1641C45.8594 16.4062 43.9062 15.0586 41.4844 14.1211C39.0625 13.1836 36.2695 12.7148 33.1055 12.7148C29.8242 12.7148 26.9727 13.2031 24.5508 14.1797C22.168 15.1172 20.3125 16.4453 18.9844 18.1641C17.6953 19.8828 17.0508 21.875 17.0508 24.1406V24.1992C17.0508 27.168 18.2422 29.5898 20.625 31.4648C23.0469 33.3008 26.7969 34.7461 31.875 35.8008L40.957 37.6758C46.8555 38.8867 51.6602 40.5273 55.3711 42.5977C59.082 44.668 61.8164 47.2656 63.5742 50.3906C65.3711 53.5156 66.2695 57.2656 66.2695 61.6406V61.6992C66.2695 66.9336 64.9414 71.4844 62.2852 75.3516C59.668 79.2188 55.8789 82.207 50.918 84.3164C45.9961 86.4258 40.0977 87.4805 33.2227 87.4805ZM95.8256 87.2461C91.2553 87.2461 87.3686 86.3281 84.1655 84.4922C81.0014 82.6172 78.5795 79.9414 76.8998 76.4648C75.2202 72.9883 74.3803 68.8672 74.3803 64.1016V23.9062H88.9116V61.1719C88.9116 65.5859 89.9467 69.0039 92.017 71.4258C94.0873 73.8086 97.2123 75 101.392 75C103.462 75 105.337 74.6484 107.017 73.9453C108.736 73.2031 110.201 72.168 111.412 70.8398C112.622 69.5117 113.54 67.9297 114.165 66.0938C114.79 64.2188 115.103 62.1484 115.103 59.8828V23.9062H129.693V86.0156H115.103V76.2891H114.81C113.716 78.4766 112.29 80.4102 110.533 82.0898C108.775 83.7305 106.665 85 104.205 85.8984C101.744 86.7969 98.9506 87.2461 95.8256 87.2461ZM163.35 87.2461C158.116 87.2461 153.565 85.957 149.698 83.3789C145.87 80.7617 142.901 77.0312 140.792 72.1875C138.722 67.3438 137.686 61.6016 137.686 54.9609V54.9023C137.686 48.2227 138.741 42.4805 140.85 37.6758C142.96 32.832 145.929 29.1211 149.757 26.543C153.585 23.9258 158.097 22.6172 163.292 22.6172C166.261 22.6172 168.975 23.1055 171.436 24.082C173.936 25.0195 176.143 26.3867 178.057 28.1836C179.972 29.9414 181.515 32.0703 182.686 34.5703H183.038V1.46484H197.569V86.0156H183.038V75.4688H182.686C181.554 77.9297 180.03 80.0391 178.116 81.7969C176.241 83.5156 174.054 84.8633 171.554 85.8398C169.093 86.7773 166.358 87.2461 163.35 87.2461ZM167.745 75C170.753 75 173.409 74.1797 175.714 72.5391C178.018 70.8984 179.815 68.5742 181.104 65.5664C182.393 62.5586 183.038 59.0234 183.038 54.9609V54.9023C183.038 50.8398 182.374 47.3242 181.046 44.3555C179.757 41.3477 177.96 39.0234 175.655 37.3828C173.39 35.7422 170.753 34.9219 167.745 34.9219C164.62 34.9219 161.905 35.7422 159.6 37.3828C157.335 38.9844 155.577 41.2695 154.327 44.2383C153.116 47.207 152.511 50.7617 152.511 54.9023V54.9609C152.511 59.0625 153.116 62.6172 154.327 65.625C155.577 68.6328 157.335 70.957 159.6 72.5977C161.905 74.1992 164.62 75 167.745 75ZM235.914 87.2461C229.821 87.2461 224.528 85.957 220.035 83.3789C215.543 80.7617 212.047 77.0508 209.547 72.2461C207.086 67.4023 205.856 61.6406 205.856 54.9609V54.8438C205.856 48.2031 207.106 42.4805 209.606 37.6758C212.106 32.832 215.602 29.1211 220.094 26.543C224.586 23.9258 229.84 22.6172 235.856 22.6172C241.91 22.6172 247.184 23.9258 251.676 26.543C256.207 29.1211 259.723 32.8125 262.223 37.6172C264.723 42.4219 265.973 48.1641 265.973 54.8438V54.9609C265.973 61.6797 264.723 67.4609 262.223 72.3047C259.762 77.1094 256.285 80.8008 251.793 83.3789C247.301 85.957 242.008 87.2461 235.914 87.2461ZM235.973 75.4688C239.059 75.4688 241.735 74.668 244 73.0664C246.266 71.4648 248.004 69.1406 249.215 66.0938C250.465 63.0078 251.09 59.2969 251.09 54.9609V54.8438C251.09 50.5469 250.465 46.875 249.215 43.8281C247.965 40.7812 246.188 38.457 243.883 36.8555C241.617 35.2539 238.942 34.4531 235.856 34.4531C232.848 34.4531 230.192 35.2539 227.887 36.8555C225.621 38.457 223.844 40.7812 222.555 43.8281C221.305 46.875 220.68 50.5469 220.68 54.8438V54.9609C220.68 59.2969 221.305 63.0078 222.555 66.0938C223.844 69.1406 225.621 71.4648 227.887 73.0664C230.192 74.668 232.887 75.4688 235.973 75.4688ZM274.552 86.0156V1.46484H289.084V86.0156H274.552ZM313.693 86.0156L292.892 57.7734L302.209 46.9922L330.51 86.0156H313.693ZM286.974 66.6797V49.6875H289.435L312.638 23.9062H329.455L300.51 55.3711H297.814L286.974 66.6797ZM355.847 87.2461C351.277 87.2461 347.39 86.3281 344.187 84.4922C341.023 82.6172 338.601 79.9414 336.921 76.4648C335.241 72.9883 334.402 68.8672 334.402 64.1016V23.9062H348.933V61.1719C348.933 65.5859 349.968 69.0039 352.038 71.4258C354.109 73.8086 357.234 75 361.413 75C363.484 75 365.359 74.6484 367.038 73.9453C368.757 73.2031 370.222 72.168 371.433 70.8398C372.644 69.5117 373.562 67.9297 374.187 66.0938C374.812 64.2188 375.124 62.1484 375.124 59.8828V23.9062H389.714V86.0156H375.124V76.2891H374.831C373.737 78.4766 372.312 80.4102 370.554 82.0898C368.796 83.7305 366.687 85 364.226 85.8984C361.765 86.7969 358.972 87.2461 355.847 87.2461ZM454.158 87.4805C447.674 87.4805 442.01 86.5039 437.166 84.5508C432.322 82.5977 428.494 79.8047 425.682 76.1719C422.908 72.5391 421.346 68.2031 420.994 63.1641L420.936 62.2852H435.35L435.467 62.9883C435.897 65.4102 436.951 67.5 438.631 69.2578C440.311 71.0156 442.518 72.3828 445.252 73.3594C448.025 74.2969 451.17 74.7656 454.686 74.7656C458.24 74.7656 461.307 74.2773 463.885 73.3008C466.502 72.3242 468.514 70.9375 469.92 69.1406C471.326 67.3047 472.029 65.1758 472.029 62.7539V62.6953C472.029 59.5312 470.838 57.0312 468.455 55.1953C466.111 53.3594 462.205 51.8555 456.736 50.6836L447.654 48.8086C439.373 47.0898 433.162 44.2773 429.022 40.3711C424.881 36.4258 422.811 31.3086 422.811 25.0195V24.9609C422.85 19.9609 424.197 15.6055 426.854 11.8945C429.549 8.14453 433.26 5.23437 437.986 3.16406C442.713 1.05469 448.104 0 454.158 0C460.291 0 465.662 1.01562 470.272 3.04688C474.881 5.07813 478.494 7.91016 481.111 11.543C483.768 15.1758 485.233 19.3945 485.506 24.1992L485.565 25.1953H471.15L471.033 24.4336C470.682 21.9727 469.764 19.8828 468.279 18.1641C466.795 16.4062 464.842 15.0586 462.42 14.1211C459.998 13.1836 457.205 12.7148 454.041 12.7148C450.76 12.7148 447.908 13.2031 445.486 14.1797C443.104 15.1172 441.248 16.4453 439.92 18.1641C438.631 19.8828 437.986 21.875 437.986 24.1406V24.1992C437.986 27.168 439.178 29.5898 441.561 31.4648C443.983 33.3008 447.733 34.7461 452.811 35.8008L461.893 37.6758C467.791 38.8867 472.596 40.5273 476.307 42.5977C480.018 44.668 482.752 47.2656 484.51 50.3906C486.307 53.5156 487.205 57.2656 487.205 61.6406V61.6992C487.205 66.9336 485.877 71.4844 483.221 75.3516C480.604 79.2188 476.815 82.207 471.854 84.3164C466.932 86.4258 461.033 87.4805 454.158 87.4805ZM538.324 106.523V75.7031H538.031C536.898 78.0469 535.375 80.0781 533.46 81.7969C531.585 83.5156 529.378 84.8438 526.839 85.7812C524.339 86.7188 521.605 87.1875 518.636 87.1875C513.441 87.1875 508.91 85.8789 505.043 83.2617C501.214 80.6445 498.246 76.9336 496.136 72.1289C494.066 67.2852 493.031 61.543 493.031 54.9023V54.8438C493.031 48.2031 494.085 42.5 496.195 37.7344C498.343 32.9297 501.351 29.2383 505.218 26.6602C509.085 24.043 513.636 22.7344 518.871 22.7344C521.8 22.7344 524.496 23.2227 526.957 24.1992C529.418 25.1758 531.566 26.5625 533.402 28.3594C535.277 30.1172 536.8 32.207 537.972 34.6289H538.324V23.9062H552.914V106.523H538.324ZM523.207 74.8828C526.253 74.8828 528.91 74.082 531.175 72.4805C533.441 70.8398 535.199 68.5156 536.449 65.5078C537.738 62.5 538.382 58.9844 538.382 54.9609V54.9023C538.382 50.8398 537.738 47.3242 536.449 44.3555C535.16 41.3867 533.382 39.1016 531.117 37.5C528.851 35.8594 526.214 35.0391 523.207 35.0391C520.082 35.0391 517.367 35.8398 515.062 37.4414C512.757 39.043 510.98 41.3281 509.73 44.2969C508.48 47.2656 507.855 50.7812 507.855 54.8438V54.9023C507.855 59.043 508.48 62.6172 509.73 65.625C510.98 68.5938 512.757 70.8789 515.062 72.4805C517.367 74.082 520.082 74.8828 523.207 74.8828ZM584.579 87.2461C580.009 87.2461 576.122 86.3281 572.919 84.4922C569.755 82.6172 567.333 79.9414 565.653 76.4648C563.974 72.9883 563.134 68.8672 563.134 64.1016V23.9062H577.665V61.1719C577.665 65.5859 578.7 69.0039 580.77 71.4258C582.841 73.8086 585.966 75 590.145 75C592.216 75 594.091 74.6484 595.77 73.9453C597.489 73.2031 598.954 72.168 600.165 70.8398C601.376 69.5117 602.294 67.9297 602.919 66.0938C603.544 64.2188 603.856 62.1484 603.856 59.8828V23.9062H618.446V86.0156H603.856V76.2891H603.563C602.47 78.4766 601.044 80.4102 599.286 82.0898C597.528 83.7305 595.419 85 592.958 85.8984C590.497 86.7969 587.704 87.2461 584.579 87.2461ZM647.358 87.0703C643.256 87.0703 639.623 86.2891 636.459 84.7266C633.334 83.125 630.893 80.918 629.135 78.1055C627.416 75.2539 626.557 71.9922 626.557 68.3203V68.2031C626.557 64.4922 627.475 61.3281 629.311 58.7109C631.186 56.0547 633.881 53.9648 637.397 52.4414C640.912 50.8789 645.17 49.9414 650.17 49.6289L673.901 48.1641V57.832L652.221 59.1797C648.627 59.4141 645.873 60.2734 643.959 61.7578C642.045 63.2422 641.088 65.2148 641.088 67.6758V67.7344C641.088 70.2734 642.045 72.2852 643.959 73.7695C645.912 75.2148 648.491 75.9375 651.694 75.9375C654.506 75.9375 657.006 75.3711 659.194 74.2383C661.42 73.1055 663.178 71.5625 664.467 69.6094C665.756 67.6562 666.401 65.4492 666.401 62.9883V44.3555C666.401 41.2305 665.405 38.7695 663.412 36.9727C661.459 35.1367 658.627 34.2188 654.916 34.2188C651.479 34.2188 648.725 34.9609 646.655 36.4453C644.584 37.8906 643.295 39.7656 642.787 42.0703L642.67 42.5977H629.194L629.252 41.8945C629.565 38.2227 630.795 34.9414 632.944 32.0508C635.092 29.1211 638.061 26.8164 641.85 25.1367C645.678 23.457 650.209 22.6172 655.444 22.6172C660.639 22.6172 665.131 23.4766 668.92 25.1953C672.748 26.9141 675.698 29.3164 677.768 32.4023C679.877 35.4883 680.932 39.1211 680.932 43.3008V86.0156H666.401V76.4648H666.049C664.877 78.6133 663.354 80.4883 661.479 82.0898C659.604 83.6914 657.455 84.9219 655.034 85.7812C652.651 86.6406 650.092 87.0703 647.358 87.0703ZM714.414 87.2461C709.18 87.2461 704.629 85.957 700.762 83.3789C696.933 80.7617 693.965 77.0312 691.855 72.1875C689.785 67.3438 688.75 61.6016 688.75 54.9609V54.9023C688.75 48.2227 689.805 42.4805 691.914 37.6758C694.023 32.832 696.992 29.1211 700.82 26.543C704.648 23.9258 709.16 22.6172 714.355 22.6172C717.324 22.6172 720.039 23.1055 722.5 24.082C725 25.0195 727.207 26.3867 729.121 28.1836C731.035 29.9414 732.578 32.0703 733.75 34.5703H734.101V1.46484H748.633V86.0156H734.101V75.4688H733.75C732.617 77.9297 731.094 80.0391 729.18 81.7969C727.305 83.5156 725.117 84.8633 722.617 85.8398C720.156 86.7773 717.422 87.2461 714.414 87.2461ZM718.808 75C721.816 75 724.472 74.1797 726.777 72.5391C729.082 70.8984 730.879 68.5742 732.168 65.5664C733.457 62.5586 734.101 59.0234 734.101 54.9609V54.9023C734.101 50.8398 733.437 47.3242 732.109 44.3555C730.82 41.3477 729.023 39.0234 726.719 37.3828C724.453 35.7422 721.816 34.9219 718.808 34.9219C715.683 34.9219 712.969 35.7422 710.664 37.3828C708.398 38.9844 706.64 41.2695 705.39 44.2383C704.18 47.207 703.574 50.7617 703.574 54.9023V54.9609C703.574 59.0625 704.18 62.6172 705.39 65.625C706.64 68.6328 708.398 70.957 710.664 72.5977C712.969 74.1992 715.683 75 718.808 75Z" fill="black"/>
</svg>
